<?xml version="1.0" encoding="utf-8"?>
<!-- Generator: Adobe Illustrator 23.0.1, SVG Export Plug-In . SVG Version: 6.00 Build 0)  -->
<svg version="1.1" id="Capa_1" xmlns="http://www.w3.org/2000/svg" xmlns:xlink="http://www.w3.org/1999/xlink" x="0px" y="0px"
	 viewBox="0 0 58.3 29.8" style="enable-background:new 0 0 58.3 29.8;" xml:space="preserve">
<style type="text/css">
	.st0{fill:none;stroke:#333333;stroke-width:0.75;stroke-miterlimit:10;}
	.st1{fill:#333333;}
</style>
<path class="st0" d="M52.4,27.3H6.7c-3,0-5.5-2.5-5.5-5.5V8.1c0-3,2.5-5.5,5.5-5.5h45.7c3,0,5.5,2.5,5.5,5.5v13.7
	C57.9,24.8,55.4,27.3,52.4,27.3z"/>
<path class="st1" d="M3.8,26.7C3.8,26.7,3.8,26.8,3.8,26.7c-1,0.6-1.8,1.1-2.7,1.6c0,0,0,0,0,0c0,0,0,0,0,0c0.2-1.3,0.3-2.6,0.5-3.9
	c0,0,0,0,0,0c0,0,0,0,0,0c0,0,0,0,0,0C2.3,25.2,3.1,26,3.8,26.7z"/>
</svg>
