<?xml version="1.0" encoding="utf-8"?>
<!-- Generator: Adobe Illustrator 23.0.1, SVG Export Plug-In . SVG Version: 6.00 Build 0)  -->
<svg version="1.1" xmlns="http://www.w3.org/2000/svg" xmlns:xlink="http://www.w3.org/1999/xlink" x="0px" y="0px"
	 viewBox="0 0 487.3 487.3" style="enable-background:new 0 0 487.3 487.3;" xml:space="preserve">
<style type="text/css">
	.st0{display:none;}
	.st1{display:inline;fill:#333333;}
	.st2{display:inline;fill:#FF3333;}
	.st3{display:inline;fill:#66CC33;}
	.st4{display:inline;fill:#29ABE2;}
	.st5{fill:#333333;}
</style>
<g id="Capa_1_copy_3" class="st0">
	<path class="st1" d="M209.8,113.6c-13.5,0-24.4,11-24.4,24.4s11,24.4,24.4,24.4c13.5,0,24.4-11,24.4-24.4S223.3,113.6,209.8,113.6z
		 M223.4,133h-8.5v-8.5C218.8,125.9,221.9,129.1,223.4,133z M204.8,124.5v8.5h-8.5C197.8,129.1,200.9,125.9,204.8,124.5z M196.3,143
		h8.5v8.5C200.9,150.1,197.8,147,196.3,143z M214.8,151.6V143h8.5C221.9,147,218.8,150.1,214.8,151.6z"/>
	<path class="st1" d="M268.7,113.6c-13.5,0-24.4,11-24.4,24.4s11,24.4,24.4,24.4s24.5-11,24.5-24.4S282.2,113.6,268.7,113.6z
		 M268.7,123.6c6.2,0,11.5,3.9,13.5,9.4h-27.1C257.2,127.5,262.5,123.6,268.7,123.6z M268.7,152.5c-6.2,0-11.5-3.9-13.5-9.4h27.1
		C280.2,148.5,275,152.5,268.7,152.5z"/>
	<path class="st1" d="M359,343.3c-3.7-3.7-8.4-6.2-13.5-7.2v-22.6h7.5v-50.2c0-18-14.7-32.7-32.7-32.7h-5v17.6h-8.8v-17.6h-13.9
		v-7.1h34.3v-50.8h-10v-28.7c0-20.7-8.1-40.2-22.7-54.8c-9-9-19.9-15.5-31.7-19.2c-0.1-11-7.8-20.2-18.1-22.5V28.5
		c5.7-2.1,9.7-7.5,9.7-13.8C254,6.6,247.4,0,239.3,0s-14.7,6.6-14.7,14.7c0,6.4,4.1,11.8,9.7,13.8v18.8
		c-10.3,2.3-18.1,11.5-18.2,22.5c-31.5,9.9-54.4,39.3-54.4,74v28.7h-10v50.8H186v7.1h-13.9v17.6h-8.8v-17.6h-5
		c-18,0-32.7,14.7-32.7,32.7v50.2h8.9v22.6c-5.1,1-9.8,3.4-13.5,7.2c-10.2,10.2-10.2,26.8,0,37l3.5,3.5l15-15l15,15l3.5-3.5
		c10.2-10.2,10.2-26.8,0-37c-3.7-3.7-8.4-6.2-13.5-7.2v-22.6h18.8V280h8.8v34.9c0,13.7,8.1,25.6,19.8,31.1v41.9
		c0,13.1,7.8,24.4,18.9,29.6V445h-4c-20.5,0-37.3,16.7-37.3,37.3v5h67V445h-15.7v-24.7c1.3,0.1,2.5,0.2,3.8,0.2h5v-71.4h19.2v71.4h5
		c1.3,0,2.6-0.1,3.8-0.2V445H242v42.3h67v-5c0-20.5-16.7-37.3-37.3-37.3h-4v-27.6c11.2-5.2,18.9-16.5,18.9-29.6v-41.9
		c11.7-5.5,19.8-17.3,19.8-31.1V280h8.8v33.5h20.2v22.6c-5.1,1-9.8,3.4-13.5,7.2c-10.2,10.2-10.2,26.8,0,37l3.5,3.5l15-15l15,15
		l3.5-3.5C369.2,370,369.2,353.5,359,343.3z M153.9,369.1l-14.4-14.4l-14.4,14.4c-3.1-6.1-2.1-13.7,3-18.7c3.1-3.1,7.1-4.7,11.4-4.7
		s8.4,1.7,11.4,4.7C156,355.4,157,363,153.9,369.1z M226.6,477.3h-46.5c2.4-12.6,13.5-22.3,26.8-22.3h19.7L226.6,477.3L226.6,477.3z
		 M298.5,477.3H252V455h19.7C285,455,296.1,464.6,298.5,477.3z M239.3,10c2.6,0,4.7,2.1,4.7,4.7s-2.1,4.7-4.7,4.7s-4.7-2.1-4.7-4.7
		S236.7,10,239.3,10z M239.3,56.8c6.4,0,11.7,4.6,12.9,10.6c-4.2-0.7-8.5-1.1-12.9-1.1c-4.4,0-8.7,0.4-12.9,1.1
		C227.6,61.3,232.9,56.8,239.3,56.8z M171.8,143.8c0-37.2,30.3-67.5,67.5-67.5c18,0,35,7,47.8,19.8c12.8,12.8,19.8,29.7,19.8,47.8
		v28.7H171.8V143.8z M161.7,213.4v-30.8h155.2v30.8h-24.3H186H161.7z M196,223.4h86.6v7.1H196L196,223.4L196,223.4z M153.3,303.4
		h-17.7v-40.2c0-10.8,7.6-19.9,17.7-22.2v7l0,0V280l0,0V303.4z M163.3,270v-11.9h8.8V270H163.3z M219.7,409.9
		c-10.1-2.3-17.7-11.4-17.7-22.2v-38.7h17.7V409.9z M276.6,349.1v38.7c0,10.8-7.6,19.9-17.7,22.2v-60.8H276.6z M296.4,314.8
		c0,13.4-10.9,24.3-24.3,24.3h-65.7c-13.4,0-24.3-10.9-24.3-24.3v-74.3h114.3L296.4,314.8L296.4,314.8z M315.2,270h-8.8v-11.9h8.8
		V270z M325.2,241.1c10.1,2.3,17.7,11.4,17.7,22.2v40.2h-17.7V241.1z M354.9,369.1l-14.4-14.4l-14.4,14.4c-3.1-6.1-2.1-13.7,3-18.7
		c3-3.1,7.1-4.7,11.4-4.7c4.3,0,8.4,1.7,11.4,4.7C356.9,355.4,357.9,363,354.9,369.1z"/>
	<rect x="201.1" y="251.8" class="st2" width="12.5" height="12.5"/>
	<rect x="221.1" y="251.8" class="st3" width="12.5" height="12.5"/>
	<rect x="241.8" y="251.8" class="st4" width="12.5" height="12.5"/>
	<rect x="263.5" y="251.8" class="st2" width="12.5" height="12.5"/>
</g>
<g id="Capa_1" class="st0">
	<path class="st1" d="M209.8,113.6c-13.5,0-24.4,11-24.4,24.4s11,24.4,24.4,24.4c13.5,0,24.4-11,24.4-24.4S223.3,113.6,209.8,113.6z
		 M223.4,133h-8.5v-8.5C218.8,125.9,221.9,129.1,223.4,133z M204.8,124.5v8.5h-8.5C197.8,129.1,200.9,125.9,204.8,124.5z M196.3,143
		h8.5v8.5C200.9,150.1,197.8,147,196.3,143z M214.8,151.6V143h8.5C221.9,147,218.8,150.1,214.8,151.6z"/>
	<path class="st1" d="M268.7,113.6c-13.5,0-24.4,11-24.4,24.4s11,24.4,24.4,24.4s24.5-11,24.5-24.4S282.2,113.6,268.7,113.6z
		 M268.7,123.6c6.2,0,11.5,3.9,13.5,9.4h-27.1C257.2,127.5,262.5,123.6,268.7,123.6z M268.7,152.5c-6.2,0-11.5-3.9-13.5-9.4h27.1
		C280.2,148.5,275,152.5,268.7,152.5z"/>
	<path class="st1" d="M359,343.3c-3.7-3.7-8.4-6.2-13.5-7.2v-22.6h7.5v-50.2c0-18-14.7-32.7-32.7-32.7h-5v17.6h-8.8v-17.6h-13.9
		v-7.1h34.3v-50.8h-10v-28.7c0-20.7-8.1-40.2-22.7-54.8c-9-9-19.9-15.5-31.7-19.2c-0.1-11-7.8-20.2-18.1-22.5V28.5
		c5.7-2.1,9.7-7.5,9.7-13.8C254,6.6,247.4,0,239.3,0s-14.7,6.6-14.7,14.7c0,6.4,4.1,11.8,9.7,13.8v18.8
		c-10.3,2.3-18.1,11.5-18.2,22.5c-31.5,9.9-54.4,39.3-54.4,74v28.7h-10v50.8H186v7.1h-13.9v17.6h-8.8v-17.6h-5
		c-18,0-32.7,14.7-32.7,32.7v50.2h8.9v22.6c-5.1,1-9.8,3.4-13.5,7.2c-10.2,10.2-10.2,26.8,0,37l3.5,3.5l15-15l15,15l3.5-3.5
		c10.2-10.2,10.2-26.8,0-37c-3.7-3.7-8.4-6.2-13.5-7.2v-22.6h18.8V280h8.8v34.9c0,13.7,8.1,25.6,19.8,31.1v41.9
		c0,13.1,7.8,24.4,18.9,29.6V445h-4c-20.5,0-37.3,16.7-37.3,37.3v5h67V445h-15.7v-24.7c1.3,0.1,2.5,0.2,3.8,0.2h5v-71.4h19.2v71.4h5
		c1.3,0,2.6-0.1,3.8-0.2V445H242v42.3h67v-5c0-20.5-16.7-37.3-37.3-37.3h-4v-27.6c11.2-5.2,18.9-16.5,18.9-29.6v-41.9
		c11.7-5.5,19.8-17.3,19.8-31.1V280h8.8v33.5h20.2v22.6c-5.1,1-9.8,3.4-13.5,7.2c-10.2,10.2-10.2,26.8,0,37l3.5,3.5l15-15l15,15
		l3.5-3.5C369.2,370,369.2,353.5,359,343.3z M153.9,369.1l-14.4-14.4l-14.4,14.4c-3.1-6.1-2.1-13.7,3-18.7c3.1-3.1,7.1-4.7,11.4-4.7
		s8.4,1.7,11.4,4.7C156,355.4,157,363,153.9,369.1z M226.6,477.3h-46.5c2.4-12.6,13.5-22.3,26.8-22.3h19.7L226.6,477.3L226.6,477.3z
		 M298.5,477.3H252V455h19.7C285,455,296.1,464.6,298.5,477.3z M239.3,10c2.6,0,4.7,2.1,4.7,4.7s-2.1,4.7-4.7,4.7s-4.7-2.1-4.7-4.7
		S236.7,10,239.3,10z M239.3,56.8c6.4,0,11.7,4.6,12.9,10.6c-4.2-0.7-8.5-1.1-12.9-1.1c-4.4,0-8.7,0.4-12.9,1.1
		C227.6,61.3,232.9,56.8,239.3,56.8z M171.8,143.8c0-37.2,30.3-67.5,67.5-67.5c18,0,35,7,47.8,19.8c12.8,12.8,19.8,29.7,19.8,47.8
		v28.7H171.8V143.8z M161.7,213.4v-30.8h155.2v30.8h-24.3H186H161.7z M196,223.4h86.6v7.1H196L196,223.4L196,223.4z M153.3,303.4
		h-17.7v-40.2c0-10.8,7.6-19.9,17.7-22.2v7l0,0V280l0,0V303.4z M163.3,270v-11.9h8.8V270H163.3z M219.7,409.9
		c-10.1-2.3-17.7-11.4-17.7-22.2v-38.7h17.7V409.9z M276.6,349.1v38.7c0,10.8-7.6,19.9-17.7,22.2v-60.8H276.6z M296.4,314.8
		c0,13.4-10.9,24.3-24.3,24.3h-65.7c-13.4,0-24.3-10.9-24.3-24.3v-74.3h114.3L296.4,314.8L296.4,314.8z M315.2,270h-8.8v-11.9h8.8
		V270z M325.2,241.1c10.1,2.3,17.7,11.4,17.7,22.2v40.2h-17.7V241.1z M354.9,369.1l-14.4-14.4l-14.4,14.4c-3.1-6.1-2.1-13.7,3-18.7
		c3-3.1,7.1-4.7,11.4-4.7c4.3,0,8.4,1.7,11.4,4.7C356.9,355.4,357.9,363,354.9,369.1z"/>
	<rect x="201.1" y="251.8" class="st2" width="12.5" height="12.5"/>
	<rect x="221.1" y="251.8" class="st3" width="12.5" height="12.5"/>
	<rect x="241.8" y="251.8" class="st4" width="12.5" height="12.5"/>
	<rect x="263.5" y="251.8" class="st2" width="12.5" height="12.5"/>
</g>
<g id="Capa_1_copy" class="st0">
	<path class="st1" d="M209.8,113.6c-13.5,0-24.4,11-24.4,24.4s11,24.4,24.4,24.4c13.5,0,24.4-11,24.4-24.4S223.3,113.6,209.8,113.6z
		 M223.4,133h-8.5v-8.5C218.8,125.9,221.9,129.1,223.4,133z M204.8,124.5v8.5h-8.5C197.8,129.1,200.9,125.9,204.8,124.5z M196.3,143
		h8.5v8.5C200.9,150.1,197.8,147,196.3,143z M214.8,151.6V143h8.5C221.9,147,218.8,150.1,214.8,151.6z"/>
	<path class="st1" d="M268.7,113.6c-13.5,0-24.4,11-24.4,24.4s11,24.4,24.4,24.4s24.5-11,24.5-24.4S282.2,113.6,268.7,113.6z
		 M268.7,123.6c6.2,0,11.5,3.9,13.5,9.4h-27.1C257.2,127.5,262.5,123.6,268.7,123.6z M268.7,152.5c-6.2,0-11.5-3.9-13.5-9.4h27.1
		C280.2,148.5,275,152.5,268.7,152.5z"/>
	<path class="st1" d="M359,343.3c-3.7-3.7-8.4-6.2-13.5-7.2v-22.6h7.5v-50.2c0-18-14.7-32.7-32.7-32.7h-5v17.6h-8.8v-17.6h-13.9
		v-7.1h34.3v-50.8h-10v-28.7c0-20.7-8.1-40.2-22.7-54.8c-9-9-19.9-15.5-31.7-19.2c-0.1-11-7.8-20.2-18.1-22.5V28.5
		c5.7-2.1,9.7-7.5,9.7-13.8C254,6.6,247.4,0,239.3,0s-14.7,6.6-14.7,14.7c0,6.4,4.1,11.8,9.7,13.8v18.8
		c-10.3,2.3-18.1,11.5-18.2,22.5c-31.5,9.9-54.4,39.3-54.4,74v28.7h-10v50.8H186v7.1h-13.9v17.6h-8.8v-17.6h-5
		c-18,0-32.7,14.7-32.7,32.7v50.2h8.9v22.6c-5.1,1-9.8,3.4-13.5,7.2c-10.2,10.2-10.2,26.8,0,37l3.5,3.5l15-15l15,15l3.5-3.5
		c10.2-10.2,10.2-26.8,0-37c-3.7-3.7-8.4-6.2-13.5-7.2v-22.6h18.8V280h8.8v34.9c0,13.7,8.1,25.6,19.8,31.1v41.9
		c0,13.1,7.8,24.4,18.9,29.6V445h-4c-20.5,0-37.3,16.7-37.3,37.3v5h67V445h-15.7v-24.7c1.3,0.1,2.5,0.2,3.8,0.2h5v-71.4h19.2v71.4h5
		c1.3,0,2.6-0.1,3.8-0.2V445H242v42.3h67v-5c0-20.5-16.7-37.3-37.3-37.3h-4v-27.6c11.2-5.2,18.9-16.5,18.9-29.6v-41.9
		c11.7-5.5,19.8-17.3,19.8-31.1V280h8.8v33.5h20.2v22.6c-5.1,1-9.8,3.4-13.5,7.2c-10.2,10.2-10.2,26.8,0,37l3.5,3.5l15-15l15,15
		l3.5-3.5C369.2,370,369.2,353.5,359,343.3z M153.9,369.1l-14.4-14.4l-14.4,14.4c-3.1-6.1-2.1-13.7,3-18.7c3.1-3.1,7.1-4.7,11.4-4.7
		s8.4,1.7,11.4,4.7C156,355.4,157,363,153.9,369.1z M226.6,477.3h-46.5c2.4-12.6,13.5-22.3,26.8-22.3h19.7L226.6,477.3L226.6,477.3z
		 M298.5,477.3H252V455h19.7C285,455,296.1,464.6,298.5,477.3z M239.3,10c2.6,0,4.7,2.1,4.7,4.7s-2.1,4.7-4.7,4.7s-4.7-2.1-4.7-4.7
		S236.7,10,239.3,10z M239.3,56.8c6.4,0,11.7,4.6,12.9,10.6c-4.2-0.7-8.5-1.1-12.9-1.1c-4.4,0-8.7,0.4-12.9,1.1
		C227.6,61.3,232.9,56.8,239.3,56.8z M171.8,143.8c0-37.2,30.3-67.5,67.5-67.5c18,0,35,7,47.8,19.8c12.8,12.8,19.8,29.7,19.8,47.8
		v28.7H171.8V143.8z M161.7,213.4v-30.8h155.2v30.8h-24.3H186H161.7z M196,223.4h86.6v7.1H196L196,223.4L196,223.4z M153.3,303.4
		h-17.7v-40.2c0-10.8,7.6-19.9,17.7-22.2v7l0,0V280l0,0V303.4z M163.3,270v-11.9h8.8V270H163.3z M219.7,409.9
		c-10.1-2.3-17.7-11.4-17.7-22.2v-38.7h17.7V409.9z M276.6,349.1v38.7c0,10.8-7.6,19.9-17.7,22.2v-60.8H276.6z M296.4,314.8
		c0,13.4-10.9,24.3-24.3,24.3h-65.7c-13.4,0-24.3-10.9-24.3-24.3v-74.3h114.3L296.4,314.8L296.4,314.8z M315.2,270h-8.8v-11.9h8.8
		V270z M325.2,241.1c10.1,2.3,17.7,11.4,17.7,22.2v40.2h-17.7V241.1z M354.9,369.1l-14.4-14.4l-14.4,14.4c-3.1-6.1-2.1-13.7,3-18.7
		c3-3.1,7.1-4.7,11.4-4.7c4.3,0,8.4,1.7,11.4,4.7C356.9,355.4,357.9,363,354.9,369.1z"/>
	<rect x="201.1" y="251.8" class="st3" width="12.5" height="12.5"/>
	<rect x="221.1" y="251.8" class="st4" width="12.5" height="12.5"/>
	<rect x="241.8" y="251.8" class="st2" width="12.5" height="12.5"/>
	<rect x="263.5" y="251.8" class="st4" width="12.5" height="12.5"/>
</g>
<g id="Capa_1_copy_2">
	<path class="st5" d="M209.8,113.6c-13.5,0-24.4,11-24.4,24.4s11,24.4,24.4,24.4c13.5,0,24.4-11,24.4-24.4S223.3,113.6,209.8,113.6z
		 M223.4,133h-8.5v-8.5C218.8,125.9,221.9,129.1,223.4,133z M204.8,124.5v8.5h-8.5C197.8,129.1,200.9,125.9,204.8,124.5z M196.3,143
		h8.5v8.5C200.9,150.1,197.8,147,196.3,143z M214.8,151.6V143h8.5C221.9,147,218.8,150.1,214.8,151.6z"/>
	<path class="st5" d="M268.7,113.6c-13.5,0-24.4,11-24.4,24.4s11,24.4,24.4,24.4s24.5-11,24.5-24.4S282.2,113.6,268.7,113.6z
		 M268.7,123.6c6.2,0,11.5,3.9,13.5,9.4h-27.1C257.2,127.5,262.5,123.6,268.7,123.6z M268.7,152.5c-6.2,0-11.5-3.9-13.5-9.4h27.1
		C280.2,148.5,275,152.5,268.7,152.5z"/>
	<path class="st5" d="M359,343.3c-3.7-3.7-8.4-6.2-13.5-7.2v-22.6h7.5v-50.2c0-18-14.7-32.7-32.7-32.7h-5v17.6h-8.8v-17.6h-13.9
		v-7.1h34.3v-50.8h-10v-28.7c0-20.7-8.1-40.2-22.7-54.8c-9-9-19.9-15.5-31.7-19.2c-0.1-11-7.8-20.2-18.1-22.5V28.5
		c5.7-2.1,9.7-7.5,9.7-13.8C254,6.6,247.4,0,239.3,0s-14.7,6.6-14.7,14.7c0,6.4,4.1,11.8,9.7,13.8v18.8
		c-10.3,2.3-18.1,11.5-18.2,22.5c-31.5,9.9-54.4,39.3-54.4,74v28.7h-10v50.8H186v7.1h-13.9v17.6h-8.8v-17.6h-5
		c-18,0-32.7,14.7-32.7,32.7v50.2h8.9v22.6c-5.1,1-9.8,3.4-13.5,7.2c-10.2,10.2-10.2,26.8,0,37l3.5,3.5l15-15l15,15l3.5-3.5
		c10.2-10.2,10.2-26.8,0-37c-3.7-3.7-8.4-6.2-13.5-7.2v-22.6h18.8V280h8.8v34.9c0,13.7,8.1,25.6,19.8,31.1v41.9
		c0,13.1,7.8,24.4,18.9,29.6V445h-4c-20.5,0-37.3,16.7-37.3,37.3v5h67V445h-15.7v-24.7c1.3,0.1,2.5,0.2,3.8,0.2h5v-71.4h19.2v71.4h5
		c1.3,0,2.6-0.1,3.8-0.2V445H242v42.3h67v-5c0-20.5-16.7-37.3-37.3-37.3h-4v-27.6c11.2-5.2,18.9-16.5,18.9-29.6v-41.9
		c11.7-5.5,19.8-17.3,19.8-31.1V280h8.8v33.5h20.2v22.6c-5.1,1-9.8,3.4-13.5,7.2c-10.2,10.2-10.2,26.8,0,37l3.5,3.5l15-15l15,15
		l3.5-3.5C369.2,370,369.2,353.5,359,343.3z M153.9,369.1l-14.4-14.4l-14.4,14.4c-3.1-6.1-2.1-13.7,3-18.7c3.1-3.1,7.1-4.7,11.4-4.7
		s8.4,1.7,11.4,4.7C156,355.4,157,363,153.9,369.1z M226.6,477.3h-46.5c2.4-12.6,13.5-22.3,26.8-22.3h19.7L226.6,477.3L226.6,477.3z
		 M298.5,477.3H252V455h19.7C285,455,296.1,464.6,298.5,477.3z M239.3,10c2.6,0,4.7,2.1,4.7,4.7s-2.1,4.7-4.7,4.7s-4.7-2.1-4.7-4.7
		S236.7,10,239.3,10z M239.3,56.8c6.4,0,11.7,4.6,12.9,10.6c-4.2-0.7-8.5-1.1-12.9-1.1c-4.4,0-8.7,0.4-12.9,1.1
		C227.6,61.3,232.9,56.8,239.3,56.8z M171.8,143.8c0-37.2,30.3-67.5,67.5-67.5c18,0,35,7,47.8,19.8c12.8,12.8,19.8,29.7,19.8,47.8
		v28.7H171.8V143.8z M161.7,213.4v-30.8h155.2v30.8h-24.3H186H161.7z M196,223.4h86.6v7.1H196L196,223.4L196,223.4z M153.3,303.4
		h-17.7v-40.2c0-10.8,7.6-19.9,17.7-22.2v7l0,0V280l0,0V303.4z M163.3,270v-11.9h8.8V270H163.3z M219.7,409.9
		c-10.1-2.3-17.7-11.4-17.7-22.2v-38.7h17.7V409.9z M276.6,349.1v38.7c0,10.8-7.6,19.9-17.7,22.2v-60.8H276.6z M296.4,314.8
		c0,13.4-10.9,24.3-24.3,24.3h-65.7c-13.4,0-24.3-10.9-24.3-24.3v-74.3h114.3L296.4,314.8L296.4,314.8z M315.2,270h-8.8v-11.9h8.8
		V270z M325.2,241.1c10.1,2.3,17.7,11.4,17.7,22.2v40.2h-17.7V241.1z M354.9,369.1l-14.4-14.4l-14.4,14.4c-3.1-6.1-2.1-13.7,3-18.7
		c3-3.1,7.1-4.7,11.4-4.7c4.3,0,8.4,1.7,11.4,4.7C356.9,355.4,357.9,363,354.9,369.1z"/>
	<rect x="201.1" y="251.8" class="st5" width="12.5" height="12.5"/>
	<rect x="221.1" y="251.8" class="st5" width="12.5" height="12.5"/>
	<rect x="241.8" y="251.8" class="st5" width="12.5" height="12.5"/>
	<rect x="263.5" y="251.8" class="st5" width="12.5" height="12.5"/>
</g>
</svg>
